# xmcd CD database file
#
# Track frame offsets:
#	150
#	38000
#	57927
#	77965
#	100317
#	126922
#	153220
#	183157
#	200007
#	213480
#	230400
#	244115
#	260845
#
# Disc length: 3691 seconds
#
# Revision: 0
# Processed by: cddbd v1.5.1PL0 Copyright (c) Steve Scherf et al.
# Submitted via: CDex 1.50beta8
#
DISCID=b50e690d
DTITLE=Wynton Kelly - Autumn Leaves Disc 2
DYEAR=1900
DGENRE=Jazz
TTITLE0=Autumn Leaves (Take 1)
TTITLE1=Autumn Leaves (Take 2)
TTITLE2=Autumn Leaves (Take 3)
TTITLE3=Char's Blues (Take 1)
TTITLE4=Char's Blues (Take 2)
TTITLE5=Char's Blues
TTITLE6=Joe's Avenue (Take 1)
TTITLE7=Joe's Avenue (Take 4)
TTITLE8=Joe's Avenue (Take 8)
TTITLE9=Joe's Avenue (Take 9)
TTITLE10=Someday My Prince Will Come (Take 5)
TTITLE11=Someday My Prince Will Come (Take 6)
TTITLE12=Come Rain Or Come Shine
EXTD=
EXTT0=
EXTT1=
EXTT2=
EXTT3=
EXTT4=
EXTT5=
EXTT6=
EXTT7=
EXTT8=
EXTT9=
EXTT10=
EXTT11=
EXTT12=
PLAYORDER=
